<?xml version="1.0" encoding="utf-8"?>
<!-- Generator: Adobe Illustrator 23.0.6, SVG Export Plug-In . SVG Version: 6.00 Build 0)  -->
<svg version="1.1" id="Layer_1" xmlns="http://www.w3.org/2000/svg" xmlns:xlink="http://www.w3.org/1999/xlink" x="0px" y="0px"
	 viewBox="0 0 114 41" style="enable-background:new 0 0 114 41;" xml:space="preserve">
<style type="text/css">
	.st0{fill:#232E35;}
</style>
<g>
	<path class="st0" d="M20.9,2.9c-9.6,0-17.4,7.8-17.4,17.4s7.8,17.4,17.4,17.4S38.3,30,38.3,20.4S30.5,2.9,20.9,2.9z M23.5,30.4
		c0,1.4-1.2,2.6-2.6,2.6c-0.7,0-1.4-0.3-1.8-0.8c-0.5-0.5-0.8-1.1-0.8-1.8v-9.9c0-1.4,1.2-2.6,2.6-2.6c0.7,0,1.4,0.3,1.8,0.8
		c0.5,0.5,0.8,1.1,0.8,1.8V30.4z M29.9,15.6c-0.5,0.5-1.1,0.8-1.8,0.8H13.7c-1.4,0-2.6-1.2-2.6-2.6c0-0.7,0.3-1.4,0.8-1.8
		c0.5-0.5,1.1-0.8,1.8-0.8H28c1.4,0,2.6,1.2,2.6,2.6C30.6,14.5,30.3,15.1,29.9,15.6z"/>
	<g>
		<path class="st0" d="M52.5,29.1V15.8h-5.2v-2.5h13.4v2.5h-5.2v13.3H52.5z"/>
		<path class="st0" d="M64.7,29.2c-0.9,0-1.7-0.2-2.4-0.5c-0.7-0.3-1.2-0.7-1.6-1.3c-0.4-0.5-0.6-1.2-0.6-1.9c0-0.7,0.2-1.3,0.5-1.8
			c0.3-0.5,0.9-1,1.6-1.3C63,22.2,64,22,65.2,22h3.5v1.9h-3.3c-0.9,0-1.6,0.2-1.9,0.5c-0.3,0.3-0.5,0.7-0.5,1.2
			c0,0.5,0.2,0.9,0.6,1.2s1,0.5,1.7,0.5c0.7,0,1.3-0.2,1.9-0.5c0.5-0.3,0.9-0.8,1.2-1.4l0.5,1.7c-0.3,0.7-0.8,1.3-1.4,1.6
			C66.7,29,65.8,29.2,64.7,29.2z M68.5,29.1v-2.5l-0.1-0.5v-4.3c0-0.8-0.3-1.5-0.8-1.9s-1.3-0.7-2.3-0.7c-0.7,0-1.3,0.1-2,0.3
			c-0.6,0.2-1.2,0.5-1.7,0.9l-1.1-2c0.7-0.5,1.4-0.9,2.3-1.1c0.9-0.3,1.8-0.4,2.8-0.4c1.8,0,3.1,0.4,4.1,1.3
			c0.9,0.8,1.4,2.1,1.4,3.9v7H68.5z"/>
		<path class="st0" d="M73.9,29.1V17h2.7v3.3l-0.3-1c0.3-0.8,0.9-1.4,1.7-1.9c0.8-0.4,1.7-0.6,2.9-0.6v2.7c-0.1,0-0.2,0-0.3,0
			c-0.1,0-0.2,0-0.3,0c-1.1,0-1.9,0.3-2.6,0.9c-0.6,0.6-0.9,1.6-0.9,2.8v5.8H73.9z"/>
		<path class="st0" d="M86.9,29.2c-0.9,0-1.7-0.2-2.4-0.5c-0.7-0.3-1.2-0.7-1.6-1.3c-0.4-0.5-0.6-1.2-0.6-1.9c0-0.7,0.2-1.3,0.5-1.8
			c0.3-0.5,0.9-1,1.6-1.3c0.7-0.3,1.7-0.5,2.9-0.5h3.5v1.9h-3.3c-0.9,0-1.6,0.2-1.9,0.5c-0.3,0.3-0.5,0.7-0.5,1.2
			c0,0.5,0.2,0.9,0.6,1.2c0.4,0.3,1,0.5,1.7,0.5c0.7,0,1.3-0.2,1.9-0.5c0.5-0.3,0.9-0.8,1.2-1.4L91,27c-0.3,0.7-0.8,1.3-1.4,1.6
			C88.8,29,88,29.2,86.9,29.2z M90.7,29.1v-2.5l-0.1-0.5v-4.3c0-0.8-0.3-1.5-0.8-1.9s-1.3-0.7-2.3-0.7c-0.7,0-1.3,0.1-2,0.3
			c-0.6,0.2-1.2,0.5-1.7,0.9l-1.1-2c0.7-0.5,1.4-0.9,2.3-1.1c0.9-0.3,1.8-0.4,2.8-0.4c1.8,0,3.1,0.4,4.1,1.3s1.4,2.1,1.4,3.9v7H90.7
			z"/>
		<path class="st0" d="M100.7,29.2c-1,0-2-0.1-2.9-0.4c-0.9-0.3-1.7-0.6-2.2-1l1.1-2.1c0.5,0.3,1.2,0.6,1.9,0.8
			c0.8,0.2,1.5,0.3,2.3,0.3c0.9,0,1.5-0.1,1.9-0.3c0.4-0.2,0.6-0.6,0.6-1c0-0.3-0.1-0.6-0.4-0.8s-0.6-0.3-1.1-0.4s-0.9-0.2-1.5-0.2
			c-0.5-0.1-1.1-0.2-1.6-0.3c-0.5-0.1-1-0.3-1.5-0.6s-0.8-0.6-1.1-1c-0.3-0.4-0.4-1-0.4-1.7c0-0.8,0.2-1.4,0.7-2
			c0.4-0.6,1-1,1.8-1.3c0.8-0.3,1.7-0.5,2.8-0.5c0.8,0,1.6,0.1,2.4,0.3c0.8,0.2,1.5,0.4,2.1,0.8l-1.1,2.1c-0.6-0.3-1.1-0.6-1.7-0.7
			c-0.6-0.1-1.2-0.2-1.7-0.2c-0.8,0-1.5,0.1-1.9,0.4c-0.4,0.2-0.6,0.6-0.6,1c0,0.4,0.1,0.6,0.4,0.8c0.3,0.2,0.6,0.3,1.1,0.4
			c0.4,0.1,0.9,0.2,1.5,0.3c0.5,0.1,1.1,0.2,1.6,0.3c0.5,0.1,1,0.3,1.5,0.5c0.4,0.2,0.8,0.6,1.1,1c0.3,0.4,0.4,1,0.4,1.6
			c0,0.8-0.2,1.4-0.7,2c-0.4,0.5-1.1,1-1.9,1.3C102.7,29.1,101.8,29.2,100.7,29.2z"/>
		<rect x="108.3" y="26.2" class="st0" width="2.8" height="3"/>
	</g>
</g>
</svg>
